<mxfile host="app.diagrams.net" modified="2024-04-07T08:28:42.716Z" agent="Mozilla/5.0 (Windows NT 10.0; Win64; x64) AppleWebKit/537.36 (KHTML, like Gecko) Chrome/123.0.0.0 Safari/537.36" etag="okTKlG36HxNVDlSXnSgc" version="24.2.2" type="device">
  <diagram id="C5RBs43oDa-KdzZeNtuy" name="Page-1">
    <mxGraphModel dx="1105" dy="549" grid="1" gridSize="10" guides="1" tooltips="1" connect="1" arrows="1" fold="1" page="1" pageScale="1" pageWidth="1169" pageHeight="827" math="0" shadow="0">
      <root>
        <mxCell id="WIyWlLk6GJQsqaUBKTNV-0" />
        <mxCell id="WIyWlLk6GJQsqaUBKTNV-1" parent="WIyWlLk6GJQsqaUBKTNV-0" />
        <mxCell id="Zq7IhAjDlZkIPvdR3lhH-0" value="Fakultet" style="swimlane;fontStyle=1;align=center;verticalAlign=top;childLayout=stackLayout;horizontal=1;startSize=26;horizontalStack=0;resizeParent=1;resizeParentMax=0;resizeLast=0;collapsible=1;marginBottom=0;whiteSpace=wrap;html=1;" parent="WIyWlLk6GJQsqaUBKTNV-1" vertex="1">
          <mxGeometry x="330" y="15" width="160" height="220" as="geometry">
            <mxRectangle x="90" y="60" width="80" height="30" as="alternateBounds" />
          </mxGeometry>
        </mxCell>
        <mxCell id="Zq7IhAjDlZkIPvdR3lhH-1" value="&lt;div&gt;&lt;span style=&quot;font-size: 10px; background-color: initial;&quot;&gt;-naziv:char*&lt;/span&gt;&lt;br&gt;&lt;/div&gt;&lt;div style=&quot;font-size: 10px;&quot;&gt;&lt;font style=&quot;font-size: 10px;&quot;&gt;-godOsnivanja:int&lt;/font&gt;&lt;/div&gt;&lt;div style=&quot;font-size: 10px;&quot;&gt;&lt;font style=&quot;font-size: 10px;&quot;&gt;-brUcionica:int&lt;/font&gt;&lt;/div&gt;&lt;div style=&quot;font-size: 10px;&quot;&gt;&lt;font style=&quot;font-size: 10px;&quot;&gt;-maxUcionica:int&lt;/font&gt;&lt;/div&gt;&lt;div style=&quot;font-size: 10px;&quot;&gt;&lt;br&gt;&lt;/div&gt;" style="text;strokeColor=none;fillColor=none;align=left;verticalAlign=top;spacingLeft=4;spacingRight=4;overflow=hidden;rotatable=0;points=[[0,0.5],[1,0.5]];portConstraint=eastwest;whiteSpace=wrap;html=1;" parent="Zq7IhAjDlZkIPvdR3lhH-0" vertex="1">
          <mxGeometry y="26" width="160" height="74" as="geometry" />
        </mxCell>
        <mxCell id="qNnTFjgTb9d9i5QFNb41-11" style="edgeStyle=orthogonalEdgeStyle;rounded=0;orthogonalLoop=1;jettySize=auto;html=1;entryX=0.006;entryY=0.092;entryDx=0;entryDy=0;entryPerimeter=0;" parent="Zq7IhAjDlZkIPvdR3lhH-0" source="Zq7IhAjDlZkIPvdR3lhH-2" target="Zq7IhAjDlZkIPvdR3lhH-1" edge="1">
          <mxGeometry relative="1" as="geometry">
            <mxPoint x="-70" y="25" as="targetPoint" />
            <Array as="points">
              <mxPoint x="-50" y="104" />
              <mxPoint x="-50" y="33" />
            </Array>
          </mxGeometry>
        </mxCell>
        <mxCell id="Zq7IhAjDlZkIPvdR3lhH-2" value="" style="line;strokeWidth=1;fillColor=none;align=left;verticalAlign=middle;spacingTop=-1;spacingLeft=3;spacingRight=3;rotatable=0;labelPosition=right;points=[];portConstraint=eastwest;strokeColor=inherit;" parent="Zq7IhAjDlZkIPvdR3lhH-0" vertex="1">
          <mxGeometry y="100" width="160" height="8" as="geometry" />
        </mxCell>
        <mxCell id="Zq7IhAjDlZkIPvdR3lhH-3" value="&lt;div&gt;&lt;font style=&quot;font-size: 7px;&quot;&gt;-Fakultet()&lt;/font&gt;&lt;/div&gt;&lt;div&gt;&lt;font style=&quot;font-size: 7px;&quot;&gt;+getInstanca():Fakultet*&lt;/font&gt;&lt;/div&gt;&lt;div&gt;&lt;font style=&quot;font-size: 7px;&quot;&gt;+postaviParametre(n:char*,god:int)&lt;/font&gt;&lt;/div&gt;&lt;div&gt;&lt;span style=&quot;font-size: 7px;&quot;&gt;~Fakultet()&lt;/span&gt;&lt;/div&gt;&lt;font style=&quot;font-size: 7px;&quot;&gt;+izvestaj()&lt;/font&gt;&lt;div&gt;&lt;span style=&quot;font-size: 7px;&quot;&gt;+izvestajNeispravni()&lt;/span&gt;&lt;/div&gt;&lt;div&gt;&lt;span style=&quot;font-size: 7px;&quot;&gt;+ispisi()&lt;/span&gt;&lt;/div&gt;" style="text;strokeColor=none;fillColor=none;align=left;verticalAlign=top;spacingLeft=4;spacingRight=4;overflow=hidden;rotatable=0;points=[[0,0.5],[1,0.5]];portConstraint=eastwest;whiteSpace=wrap;html=1;" parent="Zq7IhAjDlZkIPvdR3lhH-0" vertex="1">
          <mxGeometry y="108" width="160" height="112" as="geometry" />
        </mxCell>
        <mxCell id="Zq7IhAjDlZkIPvdR3lhH-4" value="RacunarskaUcionica" style="swimlane;fontStyle=1;align=center;verticalAlign=top;childLayout=stackLayout;horizontal=1;startSize=26;horizontalStack=0;resizeParent=1;resizeParentMax=0;resizeLast=0;collapsible=1;marginBottom=0;whiteSpace=wrap;html=1;" parent="WIyWlLk6GJQsqaUBKTNV-1" vertex="1">
          <mxGeometry x="640" y="36" width="160" height="180" as="geometry" />
        </mxCell>
        <mxCell id="Zq7IhAjDlZkIPvdR3lhH-5" value="&lt;font style=&quot;font-size: 10px;&quot;&gt;-oznaka:char*&lt;/font&gt;&lt;div&gt;&lt;span style=&quot;font-size: 10px;&quot;&gt;-maxRacunara:int&lt;br&gt;&lt;/span&gt;&lt;div&gt;&lt;font style=&quot;font-size: 10px;&quot;&gt;-brRacunara:int&lt;/font&gt;&lt;/div&gt;&lt;/div&gt;" style="text;strokeColor=none;fillColor=none;align=left;verticalAlign=top;spacingLeft=4;spacingRight=4;overflow=hidden;rotatable=0;points=[[0,0.5],[1,0.5]];portConstraint=eastwest;whiteSpace=wrap;html=1;" parent="Zq7IhAjDlZkIPvdR3lhH-4" vertex="1">
          <mxGeometry y="26" width="160" height="54" as="geometry" />
        </mxCell>
        <mxCell id="Zq7IhAjDlZkIPvdR3lhH-6" value="" style="line;strokeWidth=1;fillColor=none;align=left;verticalAlign=middle;spacingTop=-1;spacingLeft=3;spacingRight=3;rotatable=0;labelPosition=right;points=[];portConstraint=eastwest;strokeColor=inherit;" parent="Zq7IhAjDlZkIPvdR3lhH-4" vertex="1">
          <mxGeometry y="80" width="160" height="8" as="geometry" />
        </mxCell>
        <mxCell id="Zq7IhAjDlZkIPvdR3lhH-7" value="&lt;font style=&quot;font-size: 8px;&quot;&gt;+RacunarskaUcionica(o:char*,k:int, s:Switch*)&lt;/font&gt;&lt;div style=&quot;font-size: 8px;&quot;&gt;&lt;font style=&quot;font-size: 8px;&quot;&gt;&lt;font style=&quot;font-size: 8px;&quot;&gt;~&lt;/font&gt;&lt;font style=&quot;font-size: 8px;&quot;&gt;RacunarskaUcionica()&lt;/font&gt;&lt;/font&gt;&lt;/div&gt;&lt;div style=&quot;font-size: 8px;&quot;&gt;&lt;font style=&quot;font-size: 8px;&quot;&gt;+dodajRacunar(r:Racunar*,i:int):Boolean&lt;/font&gt;&lt;/div&gt;&lt;div style=&quot;font-size: 8px;&quot;&gt;&lt;font style=&quot;font-size: 8px;&quot;&gt;+ukloniRacunar(mac:char*):Boolean&lt;/font&gt;&lt;/div&gt;&lt;div style=&quot;font-size: 8px;&quot;&gt;&lt;font style=&quot;font-size: 8px;&quot;&gt;+vratiNeispravne():int&lt;/font&gt;&lt;/div&gt;&lt;div style=&quot;font-size: 8px;&quot;&gt;&lt;font style=&quot;font-size: 8px;&quot;&gt;+ispisi()&lt;/font&gt;&lt;/div&gt;" style="text;strokeColor=none;fillColor=none;align=left;verticalAlign=top;spacingLeft=4;spacingRight=4;overflow=hidden;rotatable=0;points=[[0,0.5],[1,0.5]];portConstraint=eastwest;whiteSpace=wrap;html=1;" parent="Zq7IhAjDlZkIPvdR3lhH-4" vertex="1">
          <mxGeometry y="88" width="160" height="92" as="geometry" />
        </mxCell>
        <mxCell id="Zq7IhAjDlZkIPvdR3lhH-17" value="Racunar" style="swimlane;fontStyle=1;align=center;verticalAlign=top;childLayout=stackLayout;horizontal=1;startSize=26;horizontalStack=0;resizeParent=1;resizeParentMax=0;resizeLast=0;collapsible=1;marginBottom=0;whiteSpace=wrap;html=1;" parent="WIyWlLk6GJQsqaUBKTNV-1" vertex="1">
          <mxGeometry x="640" y="252" width="160" height="270" as="geometry" />
        </mxCell>
        <mxCell id="Zq7IhAjDlZkIPvdR3lhH-18" value="&lt;font style=&quot;font-size: 11px;&quot;&gt;- MAC : char*&lt;/font&gt;&lt;div style=&quot;font-size: 11px;&quot;&gt;&lt;font style=&quot;font-size: 11px;&quot;&gt;-ispravan : Boolean&lt;/font&gt;&lt;/div&gt;&lt;div style=&quot;font-size: 11px;&quot;&gt;&lt;font style=&quot;font-size: 11px;&quot;&gt;-maxProcesora:int&lt;/font&gt;&lt;/div&gt;&lt;div style=&quot;font-size: 11px;&quot;&gt;&lt;font style=&quot;font-size: 11px;&quot;&gt;-maxHDD:int&lt;/font&gt;&lt;/div&gt;&lt;div style=&quot;font-size: 11px;&quot;&gt;&lt;font style=&quot;font-size: 11px;&quot;&gt;-brProcesora:int&lt;/font&gt;&lt;/div&gt;&lt;div style=&quot;font-size: 11px;&quot;&gt;&lt;font style=&quot;font-size: 11px;&quot;&gt;-brHDD:int&lt;/font&gt;&lt;/div&gt;" style="text;strokeColor=none;fillColor=none;align=left;verticalAlign=top;spacingLeft=4;spacingRight=4;overflow=hidden;rotatable=0;points=[[0,0.5],[1,0.5]];portConstraint=eastwest;whiteSpace=wrap;html=1;" parent="Zq7IhAjDlZkIPvdR3lhH-17" vertex="1">
          <mxGeometry y="26" width="160" height="94" as="geometry" />
        </mxCell>
        <mxCell id="Zq7IhAjDlZkIPvdR3lhH-19" value="" style="line;strokeWidth=1;fillColor=none;align=left;verticalAlign=middle;spacingTop=-1;spacingLeft=3;spacingRight=3;rotatable=0;labelPosition=right;points=[];portConstraint=eastwest;strokeColor=inherit;" parent="Zq7IhAjDlZkIPvdR3lhH-17" vertex="1">
          <mxGeometry y="120" width="160" height="8" as="geometry" />
        </mxCell>
        <mxCell id="Zq7IhAjDlZkIPvdR3lhH-20" value="&lt;font style=&quot;font-size: 8px;&quot;&gt;+getMAC():char*&lt;/font&gt;&lt;div style=&quot;&quot;&gt;&lt;font style=&quot;font-size: 9px;&quot;&gt;+Racunar(mac:char*,isp:Boolean...)&lt;/font&gt;&lt;/div&gt;&lt;div style=&quot;&quot;&gt;&lt;font style=&quot;font-size: 9px;&quot;&gt;~Racunar()&lt;/font&gt;&lt;/div&gt;&lt;div style=&quot;&quot;&gt;&lt;font style=&quot;font-size: 8px;&quot;&gt;+setNeispravan()&lt;/font&gt;&lt;/div&gt;&lt;div style=&quot;&quot;&gt;&lt;font style=&quot;font-size: 8px;&quot;&gt;+setIspravan()&lt;/font&gt;&lt;/div&gt;&lt;div style=&quot;&quot;&gt;&lt;font style=&quot;font-size: 8px;&quot;&gt;+getIspravan():Boolean&lt;/font&gt;&lt;/div&gt;&lt;div style=&quot;&quot;&gt;&lt;font style=&quot;font-size: 8px;&quot;&gt;+ispisi()&lt;/font&gt;&lt;/div&gt;&lt;div style=&quot;&quot;&gt;&lt;font style=&quot;font-size: 8px;&quot;&gt;+ugradiHDD(h:HDD*)&lt;/font&gt;&lt;/div&gt;&lt;div style=&quot;&quot;&gt;&lt;font style=&quot;font-size: 8px;&quot;&gt;+ugradiProcesor(p:Procesor*)&lt;/font&gt;&lt;/div&gt;" style="text;strokeColor=none;fillColor=none;align=left;verticalAlign=top;spacingLeft=4;spacingRight=4;overflow=hidden;rotatable=0;points=[[0,0.5],[1,0.5]];portConstraint=eastwest;whiteSpace=wrap;html=1;" parent="Zq7IhAjDlZkIPvdR3lhH-17" vertex="1">
          <mxGeometry y="128" width="160" height="142" as="geometry" />
        </mxCell>
        <mxCell id="Zq7IhAjDlZkIPvdR3lhH-28" value="&lt;font style=&quot;font-size: 8px;&quot;&gt;1..*&lt;/font&gt;" style="text;html=1;align=center;verticalAlign=middle;resizable=0;points=[];autosize=1;strokeColor=none;fillColor=none;" parent="WIyWlLk6GJQsqaUBKTNV-1" vertex="1">
          <mxGeometry x="720" y="226" width="40" height="30" as="geometry" />
        </mxCell>
        <mxCell id="Zq7IhAjDlZkIPvdR3lhH-29" value="Tastatura" style="swimlane;fontStyle=1;align=center;verticalAlign=top;childLayout=stackLayout;horizontal=1;startSize=26;horizontalStack=0;resizeParent=1;resizeParentMax=0;resizeLast=0;collapsible=1;marginBottom=0;whiteSpace=wrap;html=1;" parent="WIyWlLk6GJQsqaUBKTNV-1" vertex="1">
          <mxGeometry x="880" y="70" width="160" height="110" as="geometry" />
        </mxCell>
        <mxCell id="Zq7IhAjDlZkIPvdR3lhH-30" value="&lt;font style=&quot;font-size: 10px;&quot;&gt;-marka:char*&lt;/font&gt;" style="text;strokeColor=none;fillColor=none;align=left;verticalAlign=top;spacingLeft=4;spacingRight=4;overflow=hidden;rotatable=0;points=[[0,0.5],[1,0.5]];portConstraint=eastwest;whiteSpace=wrap;html=1;" parent="Zq7IhAjDlZkIPvdR3lhH-29" vertex="1">
          <mxGeometry y="26" width="160" height="26" as="geometry" />
        </mxCell>
        <mxCell id="Zq7IhAjDlZkIPvdR3lhH-31" value="" style="line;strokeWidth=1;fillColor=none;align=left;verticalAlign=middle;spacingTop=-1;spacingLeft=3;spacingRight=3;rotatable=0;labelPosition=right;points=[];portConstraint=eastwest;strokeColor=inherit;" parent="Zq7IhAjDlZkIPvdR3lhH-29" vertex="1">
          <mxGeometry y="52" width="160" height="8" as="geometry" />
        </mxCell>
        <mxCell id="Zq7IhAjDlZkIPvdR3lhH-32" value="&lt;font style=&quot;font-size: 10px;&quot;&gt;+Tastatura(m:char*)&lt;/font&gt;&lt;div style=&quot;font-size: 10px;&quot;&gt;&lt;font style=&quot;font-size: 10px;&quot;&gt;~Tastatura()&lt;/font&gt;&lt;/div&gt;&lt;div style=&quot;font-size: 10px;&quot;&gt;&lt;font style=&quot;font-size: 10px;&quot;&gt;+ispisi()&lt;br&gt;&lt;/font&gt;&lt;/div&gt;" style="text;strokeColor=none;fillColor=none;align=left;verticalAlign=top;spacingLeft=4;spacingRight=4;overflow=hidden;rotatable=0;points=[[0,0.5],[1,0.5]];portConstraint=eastwest;whiteSpace=wrap;html=1;" parent="Zq7IhAjDlZkIPvdR3lhH-29" vertex="1">
          <mxGeometry y="60" width="160" height="50" as="geometry" />
        </mxCell>
        <mxCell id="Zq7IhAjDlZkIPvdR3lhH-33" value="Monitor" style="swimlane;fontStyle=1;align=center;verticalAlign=top;childLayout=stackLayout;horizontal=1;startSize=26;horizontalStack=0;resizeParent=1;resizeParentMax=0;resizeLast=0;collapsible=1;marginBottom=0;whiteSpace=wrap;html=1;" parent="WIyWlLk6GJQsqaUBKTNV-1" vertex="1">
          <mxGeometry x="880" y="210" width="160" height="140" as="geometry" />
        </mxCell>
        <mxCell id="Zq7IhAjDlZkIPvdR3lhH-34" value="&lt;font style=&quot;font-size: 10px;&quot;&gt;- dijagonala : double&lt;/font&gt;&lt;div style=&quot;font-size: 10px;&quot;&gt;&lt;font style=&quot;font-size: 10px;&quot;&gt;- rezolucija : char*&lt;/font&gt;&lt;/div&gt;&lt;div style=&quot;font-size: 10px;&quot;&gt;&lt;font style=&quot;font-size: 10px;&quot;&gt;- marka : char*&lt;/font&gt;&lt;/div&gt;" style="text;strokeColor=none;fillColor=none;align=left;verticalAlign=top;spacingLeft=4;spacingRight=4;overflow=hidden;rotatable=0;points=[[0,0.5],[1,0.5]];portConstraint=eastwest;whiteSpace=wrap;html=1;" parent="Zq7IhAjDlZkIPvdR3lhH-33" vertex="1">
          <mxGeometry y="26" width="160" height="54" as="geometry" />
        </mxCell>
        <mxCell id="Zq7IhAjDlZkIPvdR3lhH-35" value="" style="line;strokeWidth=1;fillColor=none;align=left;verticalAlign=middle;spacingTop=-1;spacingLeft=3;spacingRight=3;rotatable=0;labelPosition=right;points=[];portConstraint=eastwest;strokeColor=inherit;" parent="Zq7IhAjDlZkIPvdR3lhH-33" vertex="1">
          <mxGeometry y="80" width="160" height="8" as="geometry" />
        </mxCell>
        <mxCell id="Zq7IhAjDlZkIPvdR3lhH-36" value="&lt;font style=&quot;font-size: 9px;&quot;&gt;+Monitor(m:char*,r:char*,d:double)&lt;/font&gt;&lt;div style=&quot;&quot;&gt;&lt;font style=&quot;font-size: 9px;&quot;&gt;~Monitor()&lt;/font&gt;&lt;/div&gt;&lt;div style=&quot;&quot;&gt;&lt;font style=&quot;font-size: 9px;&quot;&gt;&lt;span style=&quot;font-size: 10px;&quot;&gt;+ispisi()&lt;/span&gt;&lt;br&gt;&lt;/font&gt;&lt;/div&gt;" style="text;strokeColor=none;fillColor=none;align=left;verticalAlign=top;spacingLeft=4;spacingRight=4;overflow=hidden;rotatable=0;points=[[0,0.5],[1,0.5]];portConstraint=eastwest;whiteSpace=wrap;html=1;" parent="Zq7IhAjDlZkIPvdR3lhH-33" vertex="1">
          <mxGeometry y="88" width="160" height="52" as="geometry" />
        </mxCell>
        <mxCell id="Zq7IhAjDlZkIPvdR3lhH-44" value="&lt;font style=&quot;font-size: 8px;&quot;&gt;1&lt;/font&gt;" style="text;html=1;align=center;verticalAlign=middle;resizable=0;points=[];autosize=1;strokeColor=none;fillColor=none;" parent="WIyWlLk6GJQsqaUBKTNV-1" vertex="1">
          <mxGeometry x="852" y="151" width="30" height="30" as="geometry" />
        </mxCell>
        <mxCell id="Zq7IhAjDlZkIPvdR3lhH-45" value="&lt;font style=&quot;font-size: 8px;&quot;&gt;1&lt;/font&gt;" style="text;html=1;align=center;verticalAlign=middle;resizable=0;points=[];autosize=1;strokeColor=none;fillColor=none;" parent="WIyWlLk6GJQsqaUBKTNV-1" vertex="1">
          <mxGeometry x="800" y="235" width="30" height="30" as="geometry" />
        </mxCell>
        <mxCell id="Zq7IhAjDlZkIPvdR3lhH-46" value="&lt;font style=&quot;font-size: 8px;&quot;&gt;1&lt;/font&gt;" style="text;html=1;align=center;verticalAlign=middle;resizable=0;points=[];autosize=1;strokeColor=none;fillColor=none;" parent="WIyWlLk6GJQsqaUBKTNV-1" vertex="1">
          <mxGeometry x="790" y="320" width="30" height="30" as="geometry" />
        </mxCell>
        <mxCell id="Zq7IhAjDlZkIPvdR3lhH-47" value="&lt;font style=&quot;font-size: 8px;&quot;&gt;1&lt;/font&gt;" style="text;html=1;align=center;verticalAlign=middle;resizable=0;points=[];autosize=1;strokeColor=none;fillColor=none;" parent="WIyWlLk6GJQsqaUBKTNV-1" vertex="1">
          <mxGeometry x="860" y="310" width="30" height="30" as="geometry" />
        </mxCell>
        <mxCell id="Zq7IhAjDlZkIPvdR3lhH-48" value="Procesor&lt;div&gt;&lt;br&gt;&lt;/div&gt;" style="swimlane;fontStyle=1;align=center;verticalAlign=top;childLayout=stackLayout;horizontal=1;startSize=26;horizontalStack=0;resizeParent=1;resizeParentMax=0;resizeLast=0;collapsible=1;marginBottom=0;whiteSpace=wrap;html=1;" parent="WIyWlLk6GJQsqaUBKTNV-1" vertex="1">
          <mxGeometry x="820" y="625" width="160" height="160" as="geometry" />
        </mxCell>
        <mxCell id="Zq7IhAjDlZkIPvdR3lhH-49" value="-takt : int&lt;div&gt;-kolL1 : int&lt;/div&gt;&lt;div&gt;-kolL2 : int&lt;/div&gt;" style="text;strokeColor=none;fillColor=none;align=left;verticalAlign=top;spacingLeft=4;spacingRight=4;overflow=hidden;rotatable=0;points=[[0,0.5],[1,0.5]];portConstraint=eastwest;whiteSpace=wrap;html=1;" parent="Zq7IhAjDlZkIPvdR3lhH-48" vertex="1">
          <mxGeometry y="26" width="160" height="64" as="geometry" />
        </mxCell>
        <mxCell id="Zq7IhAjDlZkIPvdR3lhH-50" value="" style="line;strokeWidth=1;fillColor=none;align=left;verticalAlign=middle;spacingTop=-1;spacingLeft=3;spacingRight=3;rotatable=0;labelPosition=right;points=[];portConstraint=eastwest;strokeColor=inherit;" parent="Zq7IhAjDlZkIPvdR3lhH-48" vertex="1">
          <mxGeometry y="90" width="160" height="8" as="geometry" />
        </mxCell>
        <mxCell id="Zq7IhAjDlZkIPvdR3lhH-51" value="&lt;font size=&quot;1&quot;&gt;+Procesor(t:int,kl1:int,kl2:int)&lt;/font&gt;&lt;div&gt;&lt;font size=&quot;1&quot;&gt;~Procesor()&lt;/font&gt;&lt;/div&gt;&lt;div&gt;&lt;font size=&quot;1&quot;&gt;+ispisi()&lt;/font&gt;&lt;/div&gt;" style="text;strokeColor=none;fillColor=none;align=left;verticalAlign=top;spacingLeft=4;spacingRight=4;overflow=hidden;rotatable=0;points=[[0,0.5],[1,0.5]];portConstraint=eastwest;whiteSpace=wrap;html=1;" parent="Zq7IhAjDlZkIPvdR3lhH-48" vertex="1">
          <mxGeometry y="98" width="160" height="62" as="geometry" />
        </mxCell>
        <mxCell id="Zq7IhAjDlZkIPvdR3lhH-54" value="RAM" style="swimlane;fontStyle=1;align=center;verticalAlign=top;childLayout=stackLayout;horizontal=1;startSize=26;horizontalStack=0;resizeParent=1;resizeParentMax=0;resizeLast=0;collapsible=1;marginBottom=0;whiteSpace=wrap;html=1;" parent="WIyWlLk6GJQsqaUBKTNV-1" vertex="1">
          <mxGeometry x="880" y="387" width="160" height="160" as="geometry" />
        </mxCell>
        <mxCell id="Zq7IhAjDlZkIPvdR3lhH-55" value="-takt : int&lt;div&gt;-memorija : int&lt;/div&gt;&lt;div&gt;-tipMemorije : char*&lt;/div&gt;" style="text;strokeColor=none;fillColor=none;align=left;verticalAlign=top;spacingLeft=4;spacingRight=4;overflow=hidden;rotatable=0;points=[[0,0.5],[1,0.5]];portConstraint=eastwest;whiteSpace=wrap;html=1;" parent="Zq7IhAjDlZkIPvdR3lhH-54" vertex="1">
          <mxGeometry y="26" width="160" height="64" as="geometry" />
        </mxCell>
        <mxCell id="Zq7IhAjDlZkIPvdR3lhH-56" value="" style="line;strokeWidth=1;fillColor=none;align=left;verticalAlign=middle;spacingTop=-1;spacingLeft=3;spacingRight=3;rotatable=0;labelPosition=right;points=[];portConstraint=eastwest;strokeColor=inherit;" parent="Zq7IhAjDlZkIPvdR3lhH-54" vertex="1">
          <mxGeometry y="90" width="160" height="8" as="geometry" />
        </mxCell>
        <mxCell id="Zq7IhAjDlZkIPvdR3lhH-57" value="&lt;font style=&quot;font-size: 9px;&quot;&gt;+RAM(t:int,m:int,tip:char*)&lt;/font&gt;&lt;div&gt;&lt;font style=&quot;font-size: 9px;&quot;&gt;~RAM()&lt;/font&gt;&lt;/div&gt;&lt;div&gt;&lt;font style=&quot;font-size: 9px;&quot;&gt;&lt;span style=&quot;font-size: 10px;&quot;&gt;+ispisi()&lt;/span&gt;&lt;br&gt;&lt;/font&gt;&lt;/div&gt;" style="text;strokeColor=none;fillColor=none;align=left;verticalAlign=top;spacingLeft=4;spacingRight=4;overflow=hidden;rotatable=0;points=[[0,0.5],[1,0.5]];portConstraint=eastwest;whiteSpace=wrap;html=1;" parent="Zq7IhAjDlZkIPvdR3lhH-54" vertex="1">
          <mxGeometry y="98" width="160" height="62" as="geometry" />
        </mxCell>
        <mxCell id="Zq7IhAjDlZkIPvdR3lhH-61" value="&lt;font style=&quot;font-size: 9px;&quot;&gt;1&lt;/font&gt;" style="text;html=1;align=center;verticalAlign=middle;resizable=0;points=[];autosize=1;strokeColor=none;fillColor=none;" parent="WIyWlLk6GJQsqaUBKTNV-1" vertex="1">
          <mxGeometry x="790" y="387" width="30" height="30" as="geometry" />
        </mxCell>
        <mxCell id="Zq7IhAjDlZkIPvdR3lhH-62" value="&lt;font style=&quot;font-size: 9px;&quot;&gt;1&lt;/font&gt;" style="text;html=1;align=center;verticalAlign=middle;resizable=0;points=[];autosize=1;strokeColor=none;fillColor=none;" parent="WIyWlLk6GJQsqaUBKTNV-1" vertex="1">
          <mxGeometry x="855" y="400" width="30" height="30" as="geometry" />
        </mxCell>
        <mxCell id="Zq7IhAjDlZkIPvdR3lhH-67" value="&lt;font style=&quot;font-size: 9px;&quot;&gt;1&lt;/font&gt;" style="text;html=1;align=center;verticalAlign=middle;resizable=0;points=[];autosize=1;strokeColor=none;fillColor=none;" parent="WIyWlLk6GJQsqaUBKTNV-1" vertex="1">
          <mxGeometry x="770" y="517" width="30" height="30" as="geometry" />
        </mxCell>
        <mxCell id="Zq7IhAjDlZkIPvdR3lhH-68" value="HDD" style="swimlane;fontStyle=1;align=center;verticalAlign=top;childLayout=stackLayout;horizontal=1;startSize=26;horizontalStack=0;resizeParent=1;resizeParentMax=0;resizeLast=0;collapsible=1;marginBottom=0;whiteSpace=wrap;html=1;" parent="WIyWlLk6GJQsqaUBKTNV-1" vertex="1">
          <mxGeometry x="555" y="650" width="160" height="130" as="geometry" />
        </mxCell>
        <mxCell id="Zq7IhAjDlZkIPvdR3lhH-69" value="-marka:char*&lt;div&gt;-memorija:int&lt;/div&gt;" style="text;strokeColor=none;fillColor=none;align=left;verticalAlign=top;spacingLeft=4;spacingRight=4;overflow=hidden;rotatable=0;points=[[0,0.5],[1,0.5]];portConstraint=eastwest;whiteSpace=wrap;html=1;" parent="Zq7IhAjDlZkIPvdR3lhH-68" vertex="1">
          <mxGeometry y="26" width="160" height="44" as="geometry" />
        </mxCell>
        <mxCell id="Zq7IhAjDlZkIPvdR3lhH-70" value="" style="line;strokeWidth=1;fillColor=none;align=left;verticalAlign=middle;spacingTop=-1;spacingLeft=3;spacingRight=3;rotatable=0;labelPosition=right;points=[];portConstraint=eastwest;strokeColor=inherit;" parent="Zq7IhAjDlZkIPvdR3lhH-68" vertex="1">
          <mxGeometry y="70" width="160" height="8" as="geometry" />
        </mxCell>
        <mxCell id="Zq7IhAjDlZkIPvdR3lhH-71" value="&lt;font style=&quot;font-size: 10px;&quot;&gt;+HDD(m:char*,mem:int)&lt;/font&gt;&lt;div style=&quot;&quot;&gt;&lt;font style=&quot;font-size: 10px;&quot;&gt;~HDD()&lt;br&gt;&lt;/font&gt;&lt;div style=&quot;&quot;&gt;&lt;font style=&quot;font-size: 10px;&quot;&gt;+ispisi()&lt;/font&gt;&lt;br&gt;&lt;/div&gt;&lt;/div&gt;" style="text;strokeColor=none;fillColor=none;align=left;verticalAlign=top;spacingLeft=4;spacingRight=4;overflow=hidden;rotatable=0;points=[[0,0.5],[1,0.5]];portConstraint=eastwest;whiteSpace=wrap;html=1;" parent="Zq7IhAjDlZkIPvdR3lhH-68" vertex="1">
          <mxGeometry y="78" width="160" height="52" as="geometry" />
        </mxCell>
        <mxCell id="Zq7IhAjDlZkIPvdR3lhH-75" value="&lt;font style=&quot;font-size: 10px;&quot;&gt;1&lt;/font&gt;" style="text;html=1;align=center;verticalAlign=middle;resizable=0;points=[];autosize=1;strokeColor=none;fillColor=none;" parent="WIyWlLk6GJQsqaUBKTNV-1" vertex="1">
          <mxGeometry x="675" y="527" width="30" height="30" as="geometry" />
        </mxCell>
        <mxCell id="Zq7IhAjDlZkIPvdR3lhH-76" value="&lt;font style=&quot;font-size: 10px;&quot;&gt;1..*&lt;/font&gt;" style="text;html=1;align=center;verticalAlign=middle;resizable=0;points=[];autosize=1;strokeColor=none;fillColor=none;" parent="WIyWlLk6GJQsqaUBKTNV-1" vertex="1">
          <mxGeometry x="616" y="620" width="40" height="30" as="geometry" />
        </mxCell>
        <mxCell id="Zq7IhAjDlZkIPvdR3lhH-78" value="&lt;font style=&quot;font-size: 10px;&quot;&gt;1..*&lt;/font&gt;" style="text;html=1;align=center;verticalAlign=middle;resizable=0;points=[];autosize=1;strokeColor=none;fillColor=none;" parent="WIyWlLk6GJQsqaUBKTNV-1" vertex="1">
          <mxGeometry x="837" y="587" width="40" height="30" as="geometry" />
        </mxCell>
        <mxCell id="Zq7IhAjDlZkIPvdR3lhH-79" value="SSD" style="swimlane;fontStyle=1;align=center;verticalAlign=top;childLayout=stackLayout;horizontal=1;startSize=26;horizontalStack=0;resizeParent=1;resizeParentMax=0;resizeLast=0;collapsible=1;marginBottom=0;whiteSpace=wrap;html=1;" parent="WIyWlLk6GJQsqaUBKTNV-1" vertex="1">
          <mxGeometry x="290" y="625" width="160" height="140" as="geometry" />
        </mxCell>
        <mxCell id="Zq7IhAjDlZkIPvdR3lhH-80" value="-brzinaCitanja : int&lt;div&gt;-brzinaUpisa : int&lt;/div&gt;" style="text;strokeColor=none;fillColor=none;align=left;verticalAlign=top;spacingLeft=4;spacingRight=4;overflow=hidden;rotatable=0;points=[[0,0.5],[1,0.5]];portConstraint=eastwest;whiteSpace=wrap;html=1;" parent="Zq7IhAjDlZkIPvdR3lhH-79" vertex="1">
          <mxGeometry y="26" width="160" height="44" as="geometry" />
        </mxCell>
        <mxCell id="Zq7IhAjDlZkIPvdR3lhH-81" value="" style="line;strokeWidth=1;fillColor=none;align=left;verticalAlign=middle;spacingTop=-1;spacingLeft=3;spacingRight=3;rotatable=0;labelPosition=right;points=[];portConstraint=eastwest;strokeColor=inherit;" parent="Zq7IhAjDlZkIPvdR3lhH-79" vertex="1">
          <mxGeometry y="70" width="160" height="8" as="geometry" />
        </mxCell>
        <mxCell id="Zq7IhAjDlZkIPvdR3lhH-82" value="&lt;font style=&quot;font-size: 9px;&quot;&gt;+SSD(m:char*,mem:int,bc:int,bu:int)&lt;/font&gt;&lt;div&gt;&lt;font style=&quot;font-size: 9px;&quot;&gt;~SSD()&lt;/font&gt;&lt;/div&gt;&lt;div&gt;&lt;font style=&quot;font-size: 9px;&quot;&gt;&lt;span style=&quot;font-size: 10px;&quot;&gt;+ispisi()&lt;/span&gt;&lt;br&gt;&lt;/font&gt;&lt;/div&gt;" style="text;strokeColor=none;fillColor=none;align=left;verticalAlign=top;spacingLeft=4;spacingRight=4;overflow=hidden;rotatable=0;points=[[0,0.5],[1,0.5]];portConstraint=eastwest;whiteSpace=wrap;html=1;" parent="Zq7IhAjDlZkIPvdR3lhH-79" vertex="1">
          <mxGeometry y="78" width="160" height="62" as="geometry" />
        </mxCell>
        <mxCell id="Zq7IhAjDlZkIPvdR3lhH-83" value="" style="endArrow=block;endSize=16;endFill=0;html=1;rounded=0;" parent="WIyWlLk6GJQsqaUBKTNV-1" source="Zq7IhAjDlZkIPvdR3lhH-79" target="Zq7IhAjDlZkIPvdR3lhH-68" edge="1">
          <mxGeometry width="160" relative="1" as="geometry">
            <mxPoint x="695" y="642" as="sourcePoint" />
            <mxPoint x="855" y="642" as="targetPoint" />
          </mxGeometry>
        </mxCell>
        <mxCell id="Zq7IhAjDlZkIPvdR3lhH-85" value="Switch" style="swimlane;fontStyle=1;align=center;verticalAlign=top;childLayout=stackLayout;horizontal=1;startSize=26;horizontalStack=0;resizeParent=1;resizeParentMax=0;resizeLast=0;collapsible=1;marginBottom=0;whiteSpace=wrap;html=1;" parent="WIyWlLk6GJQsqaUBKTNV-1" vertex="1">
          <mxGeometry x="60" y="180" width="200" height="160" as="geometry" />
        </mxCell>
        <mxCell id="Zq7IhAjDlZkIPvdR3lhH-86" value="&lt;font style=&quot;font-size: 11px;&quot;&gt;-brPortova:int&lt;/font&gt;&lt;div style=&quot;font-size: 11px;&quot;&gt;&lt;font style=&quot;font-size: 11px;&quot;&gt;-brAktivnihPortova:int&lt;/font&gt;&lt;/div&gt;&lt;div style=&quot;font-size: 11px;&quot;&gt;&lt;font style=&quot;font-size: 11px;&quot;&gt;-macAdrese:char**&lt;/font&gt;&lt;/div&gt;" style="text;strokeColor=none;fillColor=none;align=left;verticalAlign=top;spacingLeft=4;spacingRight=4;overflow=hidden;rotatable=0;points=[[0,0.5],[1,0.5]];portConstraint=eastwest;whiteSpace=wrap;html=1;" parent="Zq7IhAjDlZkIPvdR3lhH-85" vertex="1">
          <mxGeometry y="26" width="200" height="64" as="geometry" />
        </mxCell>
        <mxCell id="Zq7IhAjDlZkIPvdR3lhH-87" value="" style="line;strokeWidth=1;fillColor=none;align=left;verticalAlign=middle;spacingTop=-1;spacingLeft=3;spacingRight=3;rotatable=0;labelPosition=right;points=[];portConstraint=eastwest;strokeColor=inherit;" parent="Zq7IhAjDlZkIPvdR3lhH-85" vertex="1">
          <mxGeometry y="90" width="200" height="8" as="geometry" />
        </mxCell>
        <mxCell id="Zq7IhAjDlZkIPvdR3lhH-88" value="&lt;font style=&quot;font-size: 10px;&quot;&gt;+poveziRacunar(r:Racunar*,i:int):Boolean&lt;/font&gt;&lt;div&gt;&lt;span style=&quot;font-size: 10px;&quot;&gt;+otkaciRacunar(adr:char*):Boolean&lt;br&gt;&lt;/span&gt;&lt;div style=&quot;font-size: 10px;&quot;&gt;&lt;font style=&quot;font-size: 10px;&quot;&gt;+Switch(brport:int)&lt;/font&gt;&lt;/div&gt;&lt;div style=&quot;font-size: 10px;&quot;&gt;&lt;font style=&quot;font-size: 10px;&quot;&gt;~Switch()&lt;/font&gt;&lt;/div&gt;&lt;/div&gt;" style="text;strokeColor=none;fillColor=none;align=left;verticalAlign=top;spacingLeft=4;spacingRight=4;overflow=hidden;rotatable=0;points=[[0,0.5],[1,0.5]];portConstraint=eastwest;whiteSpace=wrap;html=1;" parent="Zq7IhAjDlZkIPvdR3lhH-85" vertex="1">
          <mxGeometry y="98" width="200" height="62" as="geometry" />
        </mxCell>
        <mxCell id="Zq7IhAjDlZkIPvdR3lhH-92" value="&lt;font style=&quot;font-size: 10px;&quot;&gt;1&lt;/font&gt;" style="text;html=1;align=center;verticalAlign=middle;resizable=0;points=[];autosize=1;strokeColor=none;fillColor=none;" parent="WIyWlLk6GJQsqaUBKTNV-1" vertex="1">
          <mxGeometry x="615" y="170" width="30" height="30" as="geometry" />
        </mxCell>
        <mxCell id="Zq7IhAjDlZkIPvdR3lhH-93" value="&lt;font style=&quot;font-size: 8px;&quot;&gt;1&lt;/font&gt;" style="text;html=1;align=center;verticalAlign=middle;resizable=0;points=[];autosize=1;strokeColor=none;fillColor=none;" parent="WIyWlLk6GJQsqaUBKTNV-1" vertex="1">
          <mxGeometry x="250" y="256" width="30" height="30" as="geometry" />
        </mxCell>
        <mxCell id="Zq7IhAjDlZkIPvdR3lhH-98" value="Port" style="swimlane;fontStyle=1;align=center;verticalAlign=top;childLayout=stackLayout;horizontal=1;startSize=26;horizontalStack=0;resizeParent=1;resizeParentMax=0;resizeLast=0;collapsible=1;marginBottom=0;whiteSpace=wrap;html=1;" parent="WIyWlLk6GJQsqaUBKTNV-1" vertex="1">
          <mxGeometry x="85" y="452" width="160" height="130" as="geometry" />
        </mxCell>
        <mxCell id="Zq7IhAjDlZkIPvdR3lhH-99" value="&lt;font style=&quot;font-size: 10px;&quot;&gt;-aktivan:Boolean&lt;/font&gt;" style="text;strokeColor=none;fillColor=none;align=left;verticalAlign=top;spacingLeft=4;spacingRight=4;overflow=hidden;rotatable=0;points=[[0,0.5],[1,0.5]];portConstraint=eastwest;whiteSpace=wrap;html=1;" parent="Zq7IhAjDlZkIPvdR3lhH-98" vertex="1">
          <mxGeometry y="26" width="160" height="26" as="geometry" />
        </mxCell>
        <mxCell id="Zq7IhAjDlZkIPvdR3lhH-100" value="" style="line;strokeWidth=1;fillColor=none;align=left;verticalAlign=middle;spacingTop=-1;spacingLeft=3;spacingRight=3;rotatable=0;labelPosition=right;points=[];portConstraint=eastwest;strokeColor=inherit;" parent="Zq7IhAjDlZkIPvdR3lhH-98" vertex="1">
          <mxGeometry y="52" width="160" height="8" as="geometry" />
        </mxCell>
        <mxCell id="Zq7IhAjDlZkIPvdR3lhH-101" value="&lt;font style=&quot;font-size: 10px;&quot;&gt;+Port()&lt;/font&gt;&lt;div style=&quot;font-size: 10px;&quot;&gt;&lt;font style=&quot;font-size: 10px;&quot;&gt;~Port()&lt;/font&gt;&lt;/div&gt;&lt;div style=&quot;font-size: 10px;&quot;&gt;&lt;font style=&quot;font-size: 10px;&quot;&gt;+aktiviraj():Boolean&lt;/font&gt;&lt;/div&gt;&lt;div style=&quot;font-size: 10px;&quot;&gt;&lt;font style=&quot;font-size: 10px;&quot;&gt;+deaktiviraj():Boolean&lt;br&gt;&lt;/font&gt;&lt;/div&gt;&lt;div style=&quot;font-size: 10px;&quot;&gt;&lt;font style=&quot;font-size: 10px;&quot;&gt;+getAktivan():Boolean&lt;/font&gt;&lt;/div&gt;" style="text;strokeColor=none;fillColor=none;align=left;verticalAlign=top;spacingLeft=4;spacingRight=4;overflow=hidden;rotatable=0;points=[[0,0.5],[1,0.5]];portConstraint=eastwest;whiteSpace=wrap;html=1;" parent="Zq7IhAjDlZkIPvdR3lhH-98" vertex="1">
          <mxGeometry y="60" width="160" height="70" as="geometry" />
        </mxCell>
        <mxCell id="Zq7IhAjDlZkIPvdR3lhH-103" value="1" style="text;html=1;align=center;verticalAlign=middle;resizable=0;points=[];autosize=1;strokeColor=none;fillColor=none;" parent="WIyWlLk6GJQsqaUBKTNV-1" vertex="1">
          <mxGeometry x="140" y="340" width="30" height="30" as="geometry" />
        </mxCell>
        <mxCell id="Zq7IhAjDlZkIPvdR3lhH-104" value="&lt;font style=&quot;font-size: 10px;&quot;&gt;24&lt;/font&gt;" style="text;html=1;align=center;verticalAlign=middle;resizable=0;points=[];autosize=1;strokeColor=none;fillColor=none;" parent="WIyWlLk6GJQsqaUBKTNV-1" vertex="1">
          <mxGeometry x="140" y="414" width="30" height="30" as="geometry" />
        </mxCell>
        <mxCell id="Zq7IhAjDlZkIPvdR3lhH-106" value="&lt;font style=&quot;font-size: 10px;&quot;&gt;- portovi&lt;/font&gt;" style="text;html=1;align=center;verticalAlign=middle;resizable=0;points=[];autosize=1;strokeColor=none;fillColor=none;" parent="WIyWlLk6GJQsqaUBKTNV-1" vertex="1">
          <mxGeometry x="155" y="414" width="60" height="30" as="geometry" />
        </mxCell>
        <mxCell id="Zq7IhAjDlZkIPvdR3lhH-113" value="1" style="text;align=center;fontStyle=1;verticalAlign=middle;spacingLeft=3;spacingRight=3;strokeColor=none;rotatable=0;points=[[0,0.5],[1,0.5]];portConstraint=eastwest;html=1;" parent="WIyWlLk6GJQsqaUBKTNV-1" vertex="1">
          <mxGeometry x="463" y="15" width="30" height="20" as="geometry" />
        </mxCell>
        <mxCell id="Zq7IhAjDlZkIPvdR3lhH-119" value="&lt;font style=&quot;font-size: 10px;&quot;&gt;-instanca&lt;/font&gt;" style="text;html=1;align=center;verticalAlign=middle;resizable=0;points=[];autosize=1;strokeColor=none;fillColor=none;" parent="WIyWlLk6GJQsqaUBKTNV-1" vertex="1">
          <mxGeometry x="270" y="15" width="60" height="30" as="geometry" />
        </mxCell>
        <mxCell id="Am6kRtLr305XdQdIDY00-0" value="" style="endArrow=open;html=1;endSize=12;startArrow=diamondThin;startSize=14;startFill=1;align=left;verticalAlign=bottom;rounded=0;" parent="WIyWlLk6GJQsqaUBKTNV-1" source="Zq7IhAjDlZkIPvdR3lhH-0" target="Zq7IhAjDlZkIPvdR3lhH-4" edge="1">
          <mxGeometry x="-1" y="3" relative="1" as="geometry">
            <mxPoint x="510" y="165" as="sourcePoint" />
            <mxPoint x="670" y="165" as="targetPoint" />
          </mxGeometry>
        </mxCell>
        <mxCell id="Am6kRtLr305XdQdIDY00-2" value="&lt;font style=&quot;font-size: 8px;&quot;&gt;-ucionice&lt;/font&gt;" style="text;html=1;align=center;verticalAlign=middle;resizable=0;points=[];autosize=1;strokeColor=none;fillColor=none;" parent="WIyWlLk6GJQsqaUBKTNV-1" vertex="1">
          <mxGeometry x="590" y="98" width="60" height="30" as="geometry" />
        </mxCell>
        <mxCell id="Am6kRtLr305XdQdIDY00-3" value="&lt;font style=&quot;font-size: 10px;&quot;&gt;*&lt;/font&gt;" style="text;html=1;align=center;verticalAlign=middle;resizable=0;points=[];autosize=1;strokeColor=none;fillColor=none;" parent="WIyWlLk6GJQsqaUBKTNV-1" vertex="1">
          <mxGeometry x="600" y="120" width="30" height="30" as="geometry" />
        </mxCell>
        <mxCell id="Am6kRtLr305XdQdIDY00-4" value="" style="endArrow=open;html=1;endSize=12;startArrow=diamondThin;startSize=14;startFill=1;align=left;verticalAlign=bottom;rounded=0;" parent="WIyWlLk6GJQsqaUBKTNV-1" source="Zq7IhAjDlZkIPvdR3lhH-85" target="Zq7IhAjDlZkIPvdR3lhH-98" edge="1">
          <mxGeometry x="-1" y="3" relative="1" as="geometry">
            <mxPoint x="130" y="355" as="sourcePoint" />
            <mxPoint x="290" y="355" as="targetPoint" />
          </mxGeometry>
        </mxCell>
        <mxCell id="Am6kRtLr305XdQdIDY00-9" value="&lt;font style=&quot;font-size: 8px;&quot;&gt;-tastatura&lt;/font&gt;" style="text;html=1;align=center;verticalAlign=middle;resizable=0;points=[];autosize=1;strokeColor=none;fillColor=none;" parent="WIyWlLk6GJQsqaUBKTNV-1" vertex="1">
          <mxGeometry x="830" y="120" width="60" height="30" as="geometry" />
        </mxCell>
        <mxCell id="Am6kRtLr305XdQdIDY00-15" value="&lt;font style=&quot;font-size: 8px;&quot;&gt;-racunari&lt;/font&gt;" style="text;html=1;align=center;verticalAlign=middle;resizable=0;points=[];autosize=1;strokeColor=none;fillColor=none;" parent="WIyWlLk6GJQsqaUBKTNV-1" vertex="1">
          <mxGeometry x="660" y="226" width="60" height="30" as="geometry" />
        </mxCell>
        <mxCell id="Am6kRtLr305XdQdIDY00-16" value="&lt;font style=&quot;font-size: 10px;&quot;&gt;-switch&lt;/font&gt;" style="text;html=1;align=center;verticalAlign=middle;resizable=0;points=[];autosize=1;strokeColor=none;fillColor=none;" parent="WIyWlLk6GJQsqaUBKTNV-1" vertex="1">
          <mxGeometry x="260" y="226" width="50" height="30" as="geometry" />
        </mxCell>
        <mxCell id="Am6kRtLr305XdQdIDY00-22" value="&lt;font style=&quot;font-size: 9px;&quot;&gt;-monitor&lt;/font&gt;" style="text;html=1;align=center;verticalAlign=middle;resizable=0;points=[];autosize=1;strokeColor=none;fillColor=none;" parent="WIyWlLk6GJQsqaUBKTNV-1" vertex="1">
          <mxGeometry x="830" y="286" width="60" height="30" as="geometry" />
        </mxCell>
        <mxCell id="Am6kRtLr305XdQdIDY00-25" value="&lt;font style=&quot;font-size: 9px;&quot;&gt;-ram&lt;/font&gt;" style="text;html=1;align=center;verticalAlign=middle;resizable=0;points=[];autosize=1;strokeColor=none;fillColor=none;" parent="WIyWlLk6GJQsqaUBKTNV-1" vertex="1">
          <mxGeometry x="840" y="430" width="40" height="30" as="geometry" />
        </mxCell>
        <mxCell id="Am6kRtLr305XdQdIDY00-27" value="&lt;font style=&quot;font-size: 9px;&quot;&gt;-procesor&lt;/font&gt;" style="text;html=1;align=center;verticalAlign=middle;resizable=0;points=[];autosize=1;strokeColor=none;fillColor=none;" parent="WIyWlLk6GJQsqaUBKTNV-1" vertex="1">
          <mxGeometry x="790" y="595" width="60" height="30" as="geometry" />
        </mxCell>
        <mxCell id="Am6kRtLr305XdQdIDY00-31" value="&lt;font style=&quot;font-size: 10px;&quot;&gt;-hdd&lt;/font&gt;" style="text;html=1;align=center;verticalAlign=middle;resizable=0;points=[];autosize=1;strokeColor=none;fillColor=none;" parent="WIyWlLk6GJQsqaUBKTNV-1" vertex="1">
          <mxGeometry x="655" y="620" width="40" height="30" as="geometry" />
        </mxCell>
        <mxCell id="Am6kRtLr305XdQdIDY00-33" value="" style="html=1;verticalAlign=bottom;endArrow=open;dashed=1;endSize=8;curved=0;rounded=0;exitX=1;exitY=0.65;exitDx=0;exitDy=0;exitPerimeter=0;" parent="WIyWlLk6GJQsqaUBKTNV-1" source="Zq7IhAjDlZkIPvdR3lhH-88" target="Zq7IhAjDlZkIPvdR3lhH-17" edge="1">
          <mxGeometry relative="1" as="geometry">
            <mxPoint x="520" y="295" as="sourcePoint" />
            <mxPoint x="440" y="295" as="targetPoint" />
          </mxGeometry>
        </mxCell>
        <mxCell id="kptCB4HJ4V_GeTsuAf0--0" value="" style="endArrow=open;html=1;endSize=12;startArrow=diamondThin;startSize=14;startFill=0;edgeStyle=orthogonalEdgeStyle;align=left;verticalAlign=bottom;rounded=0;" parent="WIyWlLk6GJQsqaUBKTNV-1" source="Zq7IhAjDlZkIPvdR3lhH-4" edge="1">
          <mxGeometry x="-1" y="3" relative="1" as="geometry">
            <mxPoint x="720" y="200" as="sourcePoint" />
            <mxPoint x="719.71" y="252" as="targetPoint" />
          </mxGeometry>
        </mxCell>
        <mxCell id="qNnTFjgTb9d9i5QFNb41-0" value="" style="endArrow=open;html=1;endSize=12;startArrow=diamondThin;startSize=14;startFill=0;align=left;verticalAlign=bottom;rounded=0;" parent="WIyWlLk6GJQsqaUBKTNV-1" source="Zq7IhAjDlZkIPvdR3lhH-17" target="Zq7IhAjDlZkIPvdR3lhH-48" edge="1">
          <mxGeometry x="-1" y="3" relative="1" as="geometry">
            <mxPoint x="610" y="590" as="sourcePoint" />
            <mxPoint x="770" y="590" as="targetPoint" />
          </mxGeometry>
        </mxCell>
        <mxCell id="qNnTFjgTb9d9i5QFNb41-1" value="" style="endArrow=open;html=1;endSize=12;startArrow=diamondThin;startSize=14;startFill=0;align=left;verticalAlign=bottom;rounded=0;" parent="WIyWlLk6GJQsqaUBKTNV-1" source="Zq7IhAjDlZkIPvdR3lhH-17" target="Zq7IhAjDlZkIPvdR3lhH-68" edge="1">
          <mxGeometry x="-1" y="3" relative="1" as="geometry">
            <mxPoint x="620" y="600" as="sourcePoint" />
            <mxPoint x="780" y="600" as="targetPoint" />
          </mxGeometry>
        </mxCell>
        <mxCell id="qNnTFjgTb9d9i5QFNb41-3" value="" style="endArrow=open;html=1;endSize=12;startArrow=diamondThin;startSize=14;startFill=0;align=left;verticalAlign=bottom;rounded=0;" parent="WIyWlLk6GJQsqaUBKTNV-1" source="Zq7IhAjDlZkIPvdR3lhH-17" target="Zq7IhAjDlZkIPvdR3lhH-54" edge="1">
          <mxGeometry x="-1" y="3" relative="1" as="geometry">
            <mxPoint x="780" y="430" as="sourcePoint" />
            <mxPoint x="940" y="430" as="targetPoint" />
          </mxGeometry>
        </mxCell>
        <mxCell id="qNnTFjgTb9d9i5QFNb41-5" value="" style="endArrow=open;html=1;endSize=12;startArrow=diamondThin;startSize=14;startFill=0;align=left;verticalAlign=bottom;rounded=0;" parent="WIyWlLk6GJQsqaUBKTNV-1" source="Zq7IhAjDlZkIPvdR3lhH-17" target="Zq7IhAjDlZkIPvdR3lhH-33" edge="1">
          <mxGeometry x="-1" y="3" relative="1" as="geometry">
            <mxPoint x="700" y="330" as="sourcePoint" />
            <mxPoint x="860" y="330" as="targetPoint" />
          </mxGeometry>
        </mxCell>
        <mxCell id="qNnTFjgTb9d9i5QFNb41-6" value="" style="endArrow=open;html=1;endSize=12;startArrow=diamondThin;startSize=14;startFill=0;align=left;verticalAlign=bottom;rounded=0;entryX=-0.005;entryY=0.215;entryDx=0;entryDy=0;entryPerimeter=0;" parent="WIyWlLk6GJQsqaUBKTNV-1" source="Zq7IhAjDlZkIPvdR3lhH-17" target="Zq7IhAjDlZkIPvdR3lhH-32" edge="1">
          <mxGeometry x="-1" y="3" relative="1" as="geometry">
            <mxPoint x="700" y="250" as="sourcePoint" />
            <mxPoint x="860" y="250" as="targetPoint" />
          </mxGeometry>
        </mxCell>
        <mxCell id="qNnTFjgTb9d9i5QFNb41-8" value="&lt;font style=&quot;font-size: 9px;&quot;&gt;1&lt;/font&gt;" style="text;html=1;align=center;verticalAlign=middle;resizable=0;points=[];autosize=1;strokeColor=none;fillColor=none;" parent="WIyWlLk6GJQsqaUBKTNV-1" vertex="1">
          <mxGeometry x="483" y="98" width="30" height="30" as="geometry" />
        </mxCell>
        <mxCell id="YIzD3QlJXaAdy2rIByRl-0" value="" style="endArrow=open;html=1;endSize=12;startArrow=diamondThin;startSize=14;startFill=0;align=left;verticalAlign=bottom;rounded=0;" edge="1" parent="WIyWlLk6GJQsqaUBKTNV-1" source="Zq7IhAjDlZkIPvdR3lhH-4" target="Zq7IhAjDlZkIPvdR3lhH-85">
          <mxGeometry x="-1" y="3" relative="1" as="geometry">
            <mxPoint x="400" y="280" as="sourcePoint" />
            <mxPoint x="560" y="280" as="targetPoint" />
            <Array as="points">
              <mxPoint x="480" y="260" />
            </Array>
          </mxGeometry>
        </mxCell>
      </root>
    </mxGraphModel>
  </diagram>
</mxfile>
